<mxfile host="app.diagrams.net" agent="Mozilla/5.0 (Windows NT 10.0; Win64; x64) AppleWebKit/537.36 (KHTML, like Gecko) Chrome/141.0.0.0 Safari/537.36 Edg/141.0.0.0" version="28.2.8">
  <diagram name="페이지-1" id="aU8TRvHDVID5DKgr3Tc-">
    <mxGraphModel dx="1190" dy="456" grid="1" gridSize="10" guides="1" tooltips="1" connect="1" arrows="1" fold="1" page="1" pageScale="1" pageWidth="827" pageHeight="1169" math="0" shadow="0">
      <root>
        <mxCell id="0" />
        <mxCell id="1" parent="0" />
        <mxCell id="JiStPXWFKOz-2N4WFH8a-71" value="" style="edgeStyle=orthogonalEdgeStyle;rounded=0;orthogonalLoop=1;jettySize=auto;html=1;endArrow=none;endFill=0;" parent="1" target="JiStPXWFKOz-2N4WFH8a-12" edge="1">
          <mxGeometry relative="1" as="geometry">
            <mxPoint x="340" y="490.02857142857135" as="sourcePoint" />
          </mxGeometry>
        </mxCell>
        <mxCell id="JiStPXWFKOz-2N4WFH8a-72" value="" style="edgeStyle=orthogonalEdgeStyle;rounded=0;orthogonalLoop=1;jettySize=auto;html=1;endArrow=none;endFill=0;entryX=0.5;entryY=1;entryDx=0;entryDy=0;" parent="1" source="JiStPXWFKOz-2N4WFH8a-12" target="PEZ2Lzkom9RQwcPd4v05-12" edge="1">
          <mxGeometry relative="1" as="geometry">
            <mxPoint x="840" y="350" as="targetPoint" />
          </mxGeometry>
        </mxCell>
        <mxCell id="JiStPXWFKOz-2N4WFH8a-12" value="로그인" style="rhombus;whiteSpace=wrap;html=1;" parent="1" vertex="1">
          <mxGeometry x="440" y="370" width="80" height="80" as="geometry" />
        </mxCell>
        <mxCell id="JiStPXWFKOz-2N4WFH8a-66" value="" style="edgeStyle=orthogonalEdgeStyle;rounded=0;orthogonalLoop=1;jettySize=auto;html=1;endArrow=none;endFill=0;exitX=0.5;exitY=1;exitDx=0;exitDy=0;" parent="1" source="JiStPXWFKOz-2N4WFH8a-13" edge="1">
          <mxGeometry relative="1" as="geometry">
            <mxPoint x="280.11111111111086" y="669.9988888888887" as="sourcePoint" />
            <Array as="points">
              <mxPoint x="280" y="710" />
              <mxPoint x="280" y="710" />
            </Array>
            <mxPoint x="280.02857142857147" y="720.1100000000001" as="targetPoint" />
          </mxGeometry>
        </mxCell>
        <mxCell id="PEZ2Lzkom9RQwcPd4v05-6" value="" style="edgeStyle=orthogonalEdgeStyle;rounded=0;orthogonalLoop=1;jettySize=auto;html=1;endArrow=none;endFill=0;" edge="1" parent="1" source="JiStPXWFKOz-2N4WFH8a-13" target="PEZ2Lzkom9RQwcPd4v05-3">
          <mxGeometry relative="1" as="geometry">
            <Array as="points">
              <mxPoint x="280" y="530" />
              <mxPoint x="280" y="530" />
            </Array>
          </mxGeometry>
        </mxCell>
        <mxCell id="JiStPXWFKOz-2N4WFH8a-13" value="동의" style="rhombus;whiteSpace=wrap;html=1;" parent="1" vertex="1">
          <mxGeometry x="240" y="560" width="80" height="80" as="geometry" />
        </mxCell>
        <mxCell id="JiStPXWFKOz-2N4WFH8a-70" value="" style="edgeStyle=orthogonalEdgeStyle;rounded=0;orthogonalLoop=1;jettySize=auto;html=1;endArrow=none;endFill=0;" parent="1" source="JiStPXWFKOz-2N4WFH8a-14" edge="1">
          <mxGeometry relative="1" as="geometry">
            <mxPoint x="705" y="749.6700000000001" as="targetPoint" />
          </mxGeometry>
        </mxCell>
        <mxCell id="PEZ2Lzkom9RQwcPd4v05-17" value="" style="edgeStyle=orthogonalEdgeStyle;rounded=0;orthogonalLoop=1;jettySize=auto;html=1;entryX=1;entryY=0.5;entryDx=0;entryDy=0;endArrow=none;endFill=0;" edge="1" parent="1" source="JiStPXWFKOz-2N4WFH8a-14" target="PEZ2Lzkom9RQwcPd4v05-7">
          <mxGeometry relative="1" as="geometry">
            <mxPoint x="465" y="751.6700000000001" as="targetPoint" />
            <Array as="points">
              <mxPoint x="465" y="750" />
              <mxPoint x="465" y="749" />
            </Array>
          </mxGeometry>
        </mxCell>
        <mxCell id="JiStPXWFKOz-2N4WFH8a-14" value="포함" style="rhombus;whiteSpace=wrap;html=1;" parent="1" vertex="1">
          <mxGeometry x="545" y="709.67" width="80" height="80" as="geometry" />
        </mxCell>
        <mxCell id="PEZ2Lzkom9RQwcPd4v05-5" value="" style="edgeStyle=orthogonalEdgeStyle;rounded=0;orthogonalLoop=1;jettySize=auto;html=1;endArrow=none;endFill=0;" edge="1" parent="1" source="JiStPXWFKOz-2N4WFH8a-15" target="PEZ2Lzkom9RQwcPd4v05-3">
          <mxGeometry relative="1" as="geometry">
            <Array as="points">
              <mxPoint x="280" y="450" />
              <mxPoint x="280" y="450" />
            </Array>
          </mxGeometry>
        </mxCell>
        <mxCell id="PEZ2Lzkom9RQwcPd4v05-11" value="" style="edgeStyle=orthogonalEdgeStyle;rounded=0;orthogonalLoop=1;jettySize=auto;html=1;endArrow=none;endFill=0;" edge="1" parent="1" source="JiStPXWFKOz-2N4WFH8a-15" target="PEZ2Lzkom9RQwcPd4v05-10">
          <mxGeometry relative="1" as="geometry" />
        </mxCell>
        <mxCell id="JiStPXWFKOz-2N4WFH8a-15" value="SNS 연동" style="rhombus;whiteSpace=wrap;html=1;" parent="1" vertex="1">
          <mxGeometry x="240" y="340" width="80" height="80" as="geometry" />
        </mxCell>
        <mxCell id="JiStPXWFKOz-2N4WFH8a-17" value="&lt;span style=&quot;font-size: 12px;&quot;&gt;NON_MEMBER&amp;nbsp;&lt;/span&gt;&lt;div&gt;&lt;span style=&quot;font-size: 12px;&quot;&gt;(&lt;/span&gt;&lt;span style=&quot;background-color: transparent; color: light-dark(rgb(0, 0, 0), rgb(255, 255, 255));&quot;&gt;비회원 예매 확인 정보)&lt;/span&gt;&lt;/div&gt;" style="rounded=0;whiteSpace=wrap;html=1;fontSize=14;" parent="1" vertex="1">
          <mxGeometry x="115" y="820" width="210" height="57.5" as="geometry" />
        </mxCell>
        <mxCell id="JiStPXWFKOz-2N4WFH8a-22" value="&lt;u&gt;회원의 고유 아이디&lt;/u&gt;" style="ellipse;whiteSpace=wrap;html=1;" parent="1" vertex="1">
          <mxGeometry x="-80" y="121.62" width="120" height="32.5" as="geometry" />
        </mxCell>
        <mxCell id="JiStPXWFKOz-2N4WFH8a-23" value="&lt;u&gt;예매 번호&lt;/u&gt;" style="ellipse;whiteSpace=wrap;html=1;" parent="1" vertex="1">
          <mxGeometry x="-80" y="957.5" width="120" height="32.5" as="geometry" />
        </mxCell>
        <mxCell id="JiStPXWFKOz-2N4WFH8a-24" value="&lt;u&gt;인증 요청 고유키&lt;/u&gt;" style="ellipse;whiteSpace=wrap;html=1;" parent="1" vertex="1">
          <mxGeometry x="585" y="957.5" width="120" height="32.5" as="geometry" />
        </mxCell>
        <mxCell id="JiStPXWFKOz-2N4WFH8a-25" value="&lt;u&gt;로그인 로그 고유키&lt;/u&gt;" style="ellipse;whiteSpace=wrap;html=1;" parent="1" vertex="1">
          <mxGeometry x="660" y="80" width="120" height="32.5" as="geometry" />
        </mxCell>
        <mxCell id="JiStPXWFKOz-2N4WFH8a-26" value="&lt;u&gt;SNS 매핑 고유키&lt;/u&gt;" style="ellipse;whiteSpace=wrap;html=1;" parent="1" vertex="1">
          <mxGeometry x="10" y="80" width="120" height="32.5" as="geometry" />
        </mxCell>
        <mxCell id="JiStPXWFKOz-2N4WFH8a-27" value="&lt;u&gt;약관 고유키&lt;/u&gt;" style="ellipse;whiteSpace=wrap;html=1;" parent="1" vertex="1">
          <mxGeometry x="947" y="649.06" width="120" height="32.5" as="geometry" />
        </mxCell>
        <mxCell id="JiStPXWFKOz-2N4WFH8a-28" value="&lt;u&gt;회원 ID&lt;/u&gt;" style="ellipse;whiteSpace=wrap;html=1;" parent="1" vertex="1">
          <mxGeometry x="-80" y="687.61" width="120" height="32.5" as="geometry" />
        </mxCell>
        <mxCell id="JiStPXWFKOz-2N4WFH8a-29" value="&lt;u&gt;약관 ID&lt;/u&gt;" style="ellipse;whiteSpace=wrap;html=1;" parent="1" vertex="1">
          <mxGeometry x="-80" y="720.11" width="120" height="32.5" as="geometry" />
        </mxCell>
        <mxCell id="JiStPXWFKOz-2N4WFH8a-30" value="동의 시각" style="ellipse;whiteSpace=wrap;html=1;" parent="1" vertex="1">
          <mxGeometry x="-80" y="752.61" width="120" height="32.5" as="geometry" />
        </mxCell>
        <mxCell id="JiStPXWFKOz-2N4WFH8a-34" value="비밀번호&amp;nbsp;" style="ellipse;whiteSpace=wrap;html=1;" parent="1" vertex="1">
          <mxGeometry x="-80" y="154.12" width="120" height="32.5" as="geometry" />
        </mxCell>
        <mxCell id="JiStPXWFKOz-2N4WFH8a-35" value="이름" style="ellipse;whiteSpace=wrap;html=1;" parent="1" vertex="1">
          <mxGeometry x="-80" y="186.62" width="120" height="33.62" as="geometry" />
        </mxCell>
        <mxCell id="JiStPXWFKOz-2N4WFH8a-36" value="생년월일&amp;nbsp;" style="ellipse;whiteSpace=wrap;html=1;" parent="1" vertex="1">
          <mxGeometry x="-80" y="219.12" width="120" height="32.5" as="geometry" />
        </mxCell>
        <mxCell id="JiStPXWFKOz-2N4WFH8a-37" value="이메일 주소" style="ellipse;whiteSpace=wrap;html=1;" parent="1" vertex="1">
          <mxGeometry x="-80" y="284.12" width="120" height="32.5" as="geometry" />
        </mxCell>
        <mxCell id="JiStPXWFKOz-2N4WFH8a-38" value="휴대폰 번호" style="ellipse;whiteSpace=wrap;html=1;" parent="1" vertex="1">
          <mxGeometry x="-80" y="251.62" width="120" height="32.5" as="geometry" />
        </mxCell>
        <mxCell id="JiStPXWFKOz-2N4WFH8a-39" value="가입일시" style="ellipse;whiteSpace=wrap;html=1;" parent="1" vertex="1">
          <mxGeometry x="-80" y="316.62" width="120" height="32.5" as="geometry" />
        </mxCell>
        <mxCell id="JiStPXWFKOz-2N4WFH8a-40" value="회원 상태 코드" style="ellipse;whiteSpace=wrap;html=1;" parent="1" vertex="1">
          <mxGeometry x="-80" y="349.12" width="120" height="32.5" as="geometry" />
        </mxCell>
        <mxCell id="JiStPXWFKOz-2N4WFH8a-41" value="14세 미만 여부" style="ellipse;whiteSpace=wrap;html=1;" parent="1" vertex="1">
          <mxGeometry x="-80" y="381.62" width="120" height="32.5" as="geometry" />
        </mxCell>
        <mxCell id="JiStPXWFKOz-2N4WFH8a-42" value="관련 회원 ID" style="ellipse;whiteSpace=wrap;html=1;" parent="1" vertex="1">
          <mxGeometry x="780" y="80" width="120" height="32.5" as="geometry" />
        </mxCell>
        <mxCell id="JiStPXWFKOz-2N4WFH8a-43" value="접속 IP 주소" style="ellipse;whiteSpace=wrap;html=1;" parent="1" vertex="1">
          <mxGeometry x="900" y="80" width="120" height="32.5" as="geometry" />
        </mxCell>
        <mxCell id="JiStPXWFKOz-2N4WFH8a-44" value="로그인 성공 여부" style="ellipse;whiteSpace=wrap;html=1;" parent="1" vertex="1">
          <mxGeometry x="1020" y="80" width="120" height="32.5" as="geometry" />
        </mxCell>
        <mxCell id="JiStPXWFKOz-2N4WFH8a-45" value="로그인 시각" style="ellipse;whiteSpace=wrap;html=1;" parent="1" vertex="1">
          <mxGeometry x="1140" y="80" width="120" height="32.5" as="geometry" />
        </mxCell>
        <mxCell id="JiStPXWFKOz-2N4WFH8a-46" value="회원 ID" style="ellipse;whiteSpace=wrap;html=1;" parent="1" vertex="1">
          <mxGeometry x="130" y="80" width="120" height="32.5" as="geometry" />
        </mxCell>
        <mxCell id="JiStPXWFKOz-2N4WFH8a-47" value="SNS 종류" style="ellipse;whiteSpace=wrap;html=1;" parent="1" vertex="1">
          <mxGeometry x="250" y="80" width="120" height="32.5" as="geometry" />
        </mxCell>
        <mxCell id="JiStPXWFKOz-2N4WFH8a-48" value="SNS 제공 고유번호" style="ellipse;whiteSpace=wrap;html=1;" parent="1" vertex="1">
          <mxGeometry x="370" y="80" width="120" height="32.5" as="geometry" />
        </mxCell>
        <mxCell id="JiStPXWFKOz-2N4WFH8a-49" value="연결 시각" style="ellipse;whiteSpace=wrap;html=1;" parent="1" vertex="1">
          <mxGeometry x="490" y="80" width="120" height="32.5" as="geometry" />
        </mxCell>
        <mxCell id="JiStPXWFKOz-2N4WFH8a-51" value="약관 제목" style="ellipse;whiteSpace=wrap;html=1;" parent="1" vertex="1">
          <mxGeometry x="947" y="682.17" width="120" height="32.5" as="geometry" />
        </mxCell>
        <mxCell id="JiStPXWFKOz-2N4WFH8a-52" value="약관 종류" style="ellipse;whiteSpace=wrap;html=1;" parent="1" vertex="1">
          <mxGeometry x="947" y="714.67" width="120" height="32.5" as="geometry" />
        </mxCell>
        <mxCell id="JiStPXWFKOz-2N4WFH8a-53" value="약관 전문" style="ellipse;whiteSpace=wrap;html=1;" parent="1" vertex="1">
          <mxGeometry x="947" y="747.17" width="120" height="32.5" as="geometry" />
        </mxCell>
        <mxCell id="JiStPXWFKOz-2N4WFH8a-54" value="약관 버전" style="ellipse;whiteSpace=wrap;html=1;" parent="1" vertex="1">
          <mxGeometry x="947" y="779.67" width="120" height="32.5" as="geometry" />
        </mxCell>
        <mxCell id="JiStPXWFKOz-2N4WFH8a-55" value="생성일자" style="ellipse;whiteSpace=wrap;html=1;" parent="1" vertex="1">
          <mxGeometry x="947" y="812.17" width="120" height="32.5" as="geometry" />
        </mxCell>
        <mxCell id="JiStPXWFKOz-2N4WFH8a-56" value="인증 대상 번호" style="ellipse;whiteSpace=wrap;html=1;" parent="1" vertex="1">
          <mxGeometry x="705" y="957.5" width="120" height="32.5" as="geometry" />
        </mxCell>
        <mxCell id="JiStPXWFKOz-2N4WFH8a-57" value="발송된 인증번호" style="ellipse;whiteSpace=wrap;html=1;" parent="1" vertex="1">
          <mxGeometry x="825" y="957.5" width="120" height="32.5" as="geometry" />
        </mxCell>
        <mxCell id="JiStPXWFKOz-2N4WFH8a-58" value="만료 시각" style="ellipse;whiteSpace=wrap;html=1;" parent="1" vertex="1">
          <mxGeometry x="945" y="957.5" width="120" height="32.5" as="geometry" />
        </mxCell>
        <mxCell id="JiStPXWFKOz-2N4WFH8a-73" value="예매 확인 비밀번호" style="ellipse;whiteSpace=wrap;html=1;" parent="1" vertex="1">
          <mxGeometry x="40" y="957.5" width="120" height="32.5" as="geometry" />
        </mxCell>
        <mxCell id="JiStPXWFKOz-2N4WFH8a-74" value="예매자 이름" style="ellipse;whiteSpace=wrap;html=1;" parent="1" vertex="1">
          <mxGeometry x="160" y="957.5" width="120" height="32.5" as="geometry" />
        </mxCell>
        <mxCell id="JiStPXWFKOz-2N4WFH8a-75" value="생년월일 6자리" style="ellipse;whiteSpace=wrap;html=1;" parent="1" vertex="1">
          <mxGeometry x="280" y="957.5" width="120" height="32.5" as="geometry" />
        </mxCell>
        <mxCell id="JiStPXWFKOz-2N4WFH8a-76" value="휴대폰 번호" style="ellipse;whiteSpace=wrap;html=1;" parent="1" vertex="1">
          <mxGeometry x="400" y="957.5" width="120" height="32.5" as="geometry" />
        </mxCell>
        <mxCell id="JiStPXWFKOz-2N4WFH8a-81" value="" style="endArrow=none;html=1;rounded=0;entryX=0.516;entryY=0.996;entryDx=0;entryDy=0;entryPerimeter=0;exitX=0.5;exitY=0;exitDx=0;exitDy=0;" parent="1" source="PEZ2Lzkom9RQwcPd4v05-12" target="JiStPXWFKOz-2N4WFH8a-25" edge="1">
          <mxGeometry width="50" height="50" relative="1" as="geometry">
            <mxPoint x="835" y="245" as="sourcePoint" />
            <mxPoint x="725" y="115" as="targetPoint" />
          </mxGeometry>
        </mxCell>
        <mxCell id="JiStPXWFKOz-2N4WFH8a-82" value="" style="endArrow=none;html=1;rounded=0;entryX=0.5;entryY=1;entryDx=0;entryDy=0;exitX=0.5;exitY=0;exitDx=0;exitDy=0;" parent="1" target="JiStPXWFKOz-2N4WFH8a-43" edge="1" source="PEZ2Lzkom9RQwcPd4v05-12">
          <mxGeometry width="50" height="50" relative="1" as="geometry">
            <mxPoint x="835" y="244" as="sourcePoint" />
            <mxPoint x="870" y="172.5" as="targetPoint" />
          </mxGeometry>
        </mxCell>
        <mxCell id="JiStPXWFKOz-2N4WFH8a-83" value="" style="endArrow=none;html=1;rounded=0;entryX=0.5;entryY=1;entryDx=0;entryDy=0;exitX=0.5;exitY=0;exitDx=0;exitDy=0;" parent="1" target="JiStPXWFKOz-2N4WFH8a-44" edge="1" source="PEZ2Lzkom9RQwcPd4v05-12">
          <mxGeometry width="50" height="50" relative="1" as="geometry">
            <mxPoint x="835" y="245" as="sourcePoint" />
            <mxPoint x="980" y="122.5" as="targetPoint" />
          </mxGeometry>
        </mxCell>
        <mxCell id="JiStPXWFKOz-2N4WFH8a-84" value="" style="endArrow=none;html=1;rounded=0;entryX=0.5;entryY=1;entryDx=0;entryDy=0;exitX=0.5;exitY=0;exitDx=0;exitDy=0;" parent="1" target="JiStPXWFKOz-2N4WFH8a-45" edge="1" source="PEZ2Lzkom9RQwcPd4v05-12">
          <mxGeometry width="50" height="50" relative="1" as="geometry">
            <mxPoint x="835" y="245" as="sourcePoint" />
            <mxPoint x="1050" y="102.5" as="targetPoint" />
          </mxGeometry>
        </mxCell>
        <mxCell id="JiStPXWFKOz-2N4WFH8a-85" value="" style="endArrow=none;html=1;rounded=0;entryX=0.5;entryY=1;entryDx=0;entryDy=0;exitX=0.5;exitY=0;exitDx=0;exitDy=0;" parent="1" source="PEZ2Lzkom9RQwcPd4v05-10" target="JiStPXWFKOz-2N4WFH8a-47" edge="1">
          <mxGeometry width="50" height="50" relative="1" as="geometry">
            <mxPoint x="280" y="190" as="sourcePoint" />
            <mxPoint x="320" y="180" as="targetPoint" />
          </mxGeometry>
        </mxCell>
        <mxCell id="JiStPXWFKOz-2N4WFH8a-87" value="" style="endArrow=none;html=1;rounded=0;exitX=0.5;exitY=0;exitDx=0;exitDy=0;entryX=0.5;entryY=1;entryDx=0;entryDy=0;" parent="1" source="PEZ2Lzkom9RQwcPd4v05-10" target="JiStPXWFKOz-2N4WFH8a-46" edge="1">
          <mxGeometry width="50" height="50" relative="1" as="geometry">
            <mxPoint x="280" y="190" as="sourcePoint" />
            <mxPoint x="190" y="130" as="targetPoint" />
          </mxGeometry>
        </mxCell>
        <mxCell id="JiStPXWFKOz-2N4WFH8a-88" value="" style="endArrow=none;html=1;rounded=0;exitX=0.5;exitY=0;exitDx=0;exitDy=0;entryX=0.5;entryY=1;entryDx=0;entryDy=0;" parent="1" source="PEZ2Lzkom9RQwcPd4v05-10" target="JiStPXWFKOz-2N4WFH8a-26" edge="1">
          <mxGeometry width="50" height="50" relative="1" as="geometry">
            <mxPoint x="280" y="190" as="sourcePoint" />
            <mxPoint x="90" y="140" as="targetPoint" />
          </mxGeometry>
        </mxCell>
        <mxCell id="JiStPXWFKOz-2N4WFH8a-89" value="" style="endArrow=none;html=1;rounded=0;exitX=0.5;exitY=0;exitDx=0;exitDy=0;entryX=0.5;entryY=1;entryDx=0;entryDy=0;" parent="1" source="PEZ2Lzkom9RQwcPd4v05-10" target="JiStPXWFKOz-2N4WFH8a-48" edge="1">
          <mxGeometry width="50" height="50" relative="1" as="geometry">
            <mxPoint x="280" y="190" as="sourcePoint" />
            <mxPoint x="410" y="120" as="targetPoint" />
          </mxGeometry>
        </mxCell>
        <mxCell id="JiStPXWFKOz-2N4WFH8a-90" value="" style="endArrow=none;html=1;rounded=0;entryX=0.5;entryY=1;entryDx=0;entryDy=0;exitX=0.5;exitY=0;exitDx=0;exitDy=0;" parent="1" target="JiStPXWFKOz-2N4WFH8a-49" edge="1" source="PEZ2Lzkom9RQwcPd4v05-10">
          <mxGeometry width="50" height="50" relative="1" as="geometry">
            <mxPoint x="280" y="190" as="sourcePoint" />
            <mxPoint x="460" y="150" as="targetPoint" />
          </mxGeometry>
        </mxCell>
        <mxCell id="JiStPXWFKOz-2N4WFH8a-91" value="" style="endArrow=none;html=1;rounded=0;exitX=1;exitY=0.5;exitDx=0;exitDy=0;entryX=0;entryY=0.5;entryDx=0;entryDy=0;" parent="1" target="JiStPXWFKOz-2N4WFH8a-27" edge="1">
          <mxGeometry width="50" height="50" relative="1" as="geometry">
            <mxPoint x="835" y="749.6700000000001" as="sourcePoint" />
            <mxPoint x="940" y="672.06" as="targetPoint" />
          </mxGeometry>
        </mxCell>
        <mxCell id="JiStPXWFKOz-2N4WFH8a-92" value="" style="endArrow=none;html=1;rounded=0;exitX=1;exitY=0.5;exitDx=0;exitDy=0;entryX=0;entryY=0.5;entryDx=0;entryDy=0;" parent="1" target="JiStPXWFKOz-2N4WFH8a-51" edge="1">
          <mxGeometry width="50" height="50" relative="1" as="geometry">
            <mxPoint x="835" y="749.6700000000001" as="sourcePoint" />
            <mxPoint x="940" y="702.17" as="targetPoint" />
          </mxGeometry>
        </mxCell>
        <mxCell id="JiStPXWFKOz-2N4WFH8a-93" value="" style="endArrow=none;html=1;rounded=0;exitX=1;exitY=0.5;exitDx=0;exitDy=0;entryX=0;entryY=0.5;entryDx=0;entryDy=0;" parent="1" target="JiStPXWFKOz-2N4WFH8a-52" edge="1">
          <mxGeometry width="50" height="50" relative="1" as="geometry">
            <mxPoint x="835" y="749.6700000000001" as="sourcePoint" />
            <mxPoint x="940" y="702.17" as="targetPoint" />
          </mxGeometry>
        </mxCell>
        <mxCell id="JiStPXWFKOz-2N4WFH8a-94" value="" style="endArrow=none;html=1;rounded=0;exitX=1;exitY=0.5;exitDx=0;exitDy=0;entryX=0;entryY=0.5;entryDx=0;entryDy=0;" parent="1" target="JiStPXWFKOz-2N4WFH8a-53" edge="1">
          <mxGeometry width="50" height="50" relative="1" as="geometry">
            <mxPoint x="835" y="749.6700000000001" as="sourcePoint" />
            <mxPoint x="940" y="702.17" as="targetPoint" />
          </mxGeometry>
        </mxCell>
        <mxCell id="JiStPXWFKOz-2N4WFH8a-95" value="" style="endArrow=none;html=1;rounded=0;entryX=0;entryY=0.5;entryDx=0;entryDy=0;exitX=1;exitY=0.5;exitDx=0;exitDy=0;" parent="1" target="JiStPXWFKOz-2N4WFH8a-54" edge="1">
          <mxGeometry width="50" height="50" relative="1" as="geometry">
            <mxPoint x="835" y="749.6700000000001" as="sourcePoint" />
            <mxPoint x="940" y="702.17" as="targetPoint" />
          </mxGeometry>
        </mxCell>
        <mxCell id="JiStPXWFKOz-2N4WFH8a-96" value="" style="endArrow=none;html=1;rounded=0;exitX=1;exitY=0.5;exitDx=0;exitDy=0;entryX=0;entryY=0.5;entryDx=0;entryDy=0;" parent="1" target="JiStPXWFKOz-2N4WFH8a-55" edge="1">
          <mxGeometry width="50" height="50" relative="1" as="geometry">
            <mxPoint x="835" y="749.6700000000001" as="sourcePoint" />
            <mxPoint x="940" y="702.17" as="targetPoint" />
          </mxGeometry>
        </mxCell>
        <mxCell id="JiStPXWFKOz-2N4WFH8a-97" value="" style="endArrow=none;html=1;rounded=0;entryX=0;entryY=0.5;entryDx=0;entryDy=0;exitX=1;exitY=0.5;exitDx=0;exitDy=0;" parent="1" source="JiStPXWFKOz-2N4WFH8a-28" target="PEZ2Lzkom9RQwcPd4v05-7" edge="1">
          <mxGeometry width="50" height="50" relative="1" as="geometry">
            <mxPoint x="60" y="770.11" as="sourcePoint" />
            <mxPoint x="140" y="737.6100000000001" as="targetPoint" />
          </mxGeometry>
        </mxCell>
        <mxCell id="JiStPXWFKOz-2N4WFH8a-98" value="" style="endArrow=none;html=1;rounded=0;exitX=1;exitY=0.5;exitDx=0;exitDy=0;entryX=0;entryY=0.5;entryDx=0;entryDy=0;" parent="1" source="JiStPXWFKOz-2N4WFH8a-29" target="PEZ2Lzkom9RQwcPd4v05-7" edge="1">
          <mxGeometry width="50" height="50" relative="1" as="geometry">
            <mxPoint x="60" y="770.11" as="sourcePoint" />
            <mxPoint x="140" y="737.6100000000001" as="targetPoint" />
          </mxGeometry>
        </mxCell>
        <mxCell id="JiStPXWFKOz-2N4WFH8a-100" value="" style="endArrow=none;html=1;rounded=0;entryX=0;entryY=0.5;entryDx=0;entryDy=0;exitX=1;exitY=0.5;exitDx=0;exitDy=0;" parent="1" source="JiStPXWFKOz-2N4WFH8a-30" target="PEZ2Lzkom9RQwcPd4v05-7" edge="1">
          <mxGeometry width="50" height="50" relative="1" as="geometry">
            <mxPoint x="60" y="770.11" as="sourcePoint" />
            <mxPoint x="140" y="737.6100000000001" as="targetPoint" />
          </mxGeometry>
        </mxCell>
        <mxCell id="JiStPXWFKOz-2N4WFH8a-101" value="" style="endArrow=none;html=1;rounded=0;entryX=0;entryY=0.5;entryDx=0;entryDy=0;exitX=1;exitY=0.5;exitDx=0;exitDy=0;" parent="1" source="JiStPXWFKOz-2N4WFH8a-22" edge="1">
          <mxGeometry width="50" height="50" relative="1" as="geometry">
            <mxPoint x="120" y="540" as="sourcePoint" />
            <mxPoint x="210" y="490" as="targetPoint" />
          </mxGeometry>
        </mxCell>
        <mxCell id="JiStPXWFKOz-2N4WFH8a-102" value="" style="endArrow=none;html=1;rounded=0;entryX=0;entryY=0.5;entryDx=0;entryDy=0;exitX=1;exitY=0.5;exitDx=0;exitDy=0;" parent="1" source="JiStPXWFKOz-2N4WFH8a-34" edge="1">
          <mxGeometry width="50" height="50" relative="1" as="geometry">
            <mxPoint x="120" y="540" as="sourcePoint" />
            <mxPoint x="210" y="490" as="targetPoint" />
          </mxGeometry>
        </mxCell>
        <mxCell id="JiStPXWFKOz-2N4WFH8a-103" value="" style="endArrow=none;html=1;rounded=0;entryX=0;entryY=0.5;entryDx=0;entryDy=0;exitX=1;exitY=0.5;exitDx=0;exitDy=0;" parent="1" source="JiStPXWFKOz-2N4WFH8a-35" edge="1">
          <mxGeometry width="50" height="50" relative="1" as="geometry">
            <mxPoint x="120" y="540" as="sourcePoint" />
            <mxPoint x="210" y="490" as="targetPoint" />
          </mxGeometry>
        </mxCell>
        <mxCell id="JiStPXWFKOz-2N4WFH8a-104" value="" style="endArrow=none;html=1;rounded=0;exitX=1;exitY=0.5;exitDx=0;exitDy=0;" parent="1" source="JiStPXWFKOz-2N4WFH8a-36" edge="1">
          <mxGeometry width="50" height="50" relative="1" as="geometry">
            <mxPoint x="40" y="440" as="sourcePoint" />
            <mxPoint x="210" y="490" as="targetPoint" />
          </mxGeometry>
        </mxCell>
        <mxCell id="JiStPXWFKOz-2N4WFH8a-105" value="" style="endArrow=none;html=1;rounded=0;exitX=1;exitY=0.5;exitDx=0;exitDy=0;" parent="1" source="JiStPXWFKOz-2N4WFH8a-38" edge="1">
          <mxGeometry width="50" height="50" relative="1" as="geometry">
            <mxPoint x="110" y="520" as="sourcePoint" />
            <mxPoint x="210" y="490" as="targetPoint" />
          </mxGeometry>
        </mxCell>
        <mxCell id="JiStPXWFKOz-2N4WFH8a-106" value="" style="endArrow=none;html=1;rounded=0;entryX=0;entryY=0.5;entryDx=0;entryDy=0;exitX=1;exitY=0.5;exitDx=0;exitDy=0;" parent="1" source="JiStPXWFKOz-2N4WFH8a-37" edge="1">
          <mxGeometry width="50" height="50" relative="1" as="geometry">
            <mxPoint x="80" y="510" as="sourcePoint" />
            <mxPoint x="210" y="490" as="targetPoint" />
          </mxGeometry>
        </mxCell>
        <mxCell id="JiStPXWFKOz-2N4WFH8a-107" value="" style="endArrow=none;html=1;rounded=0;entryX=0;entryY=0.5;entryDx=0;entryDy=0;exitX=1;exitY=0.5;exitDx=0;exitDy=0;" parent="1" source="JiStPXWFKOz-2N4WFH8a-39" edge="1">
          <mxGeometry width="50" height="50" relative="1" as="geometry">
            <mxPoint x="80" y="510" as="sourcePoint" />
            <mxPoint x="210" y="490" as="targetPoint" />
          </mxGeometry>
        </mxCell>
        <mxCell id="JiStPXWFKOz-2N4WFH8a-108" value="" style="endArrow=none;html=1;rounded=0;entryX=0;entryY=0.5;entryDx=0;entryDy=0;exitX=1;exitY=0.5;exitDx=0;exitDy=0;" parent="1" source="JiStPXWFKOz-2N4WFH8a-40" edge="1">
          <mxGeometry width="50" height="50" relative="1" as="geometry">
            <mxPoint x="80" y="510" as="sourcePoint" />
            <mxPoint x="210" y="490" as="targetPoint" />
          </mxGeometry>
        </mxCell>
        <mxCell id="JiStPXWFKOz-2N4WFH8a-109" value="" style="endArrow=none;html=1;rounded=0;entryX=0;entryY=0.5;entryDx=0;entryDy=0;exitX=1;exitY=0.5;exitDx=0;exitDy=0;" parent="1" source="JiStPXWFKOz-2N4WFH8a-41" edge="1">
          <mxGeometry width="50" height="50" relative="1" as="geometry">
            <mxPoint x="80" y="510" as="sourcePoint" />
            <mxPoint x="210" y="490" as="targetPoint" />
          </mxGeometry>
        </mxCell>
        <mxCell id="JiStPXWFKOz-2N4WFH8a-110" value="" style="endArrow=none;html=1;rounded=0;entryX=0.5;entryY=1;entryDx=0;entryDy=0;exitX=0.5;exitY=0;exitDx=0;exitDy=0;" parent="1" source="JiStPXWFKOz-2N4WFH8a-74" target="JiStPXWFKOz-2N4WFH8a-17" edge="1">
          <mxGeometry width="50" height="50" relative="1" as="geometry">
            <mxPoint x="90" y="930" as="sourcePoint" />
            <mxPoint x="140" y="880" as="targetPoint" />
          </mxGeometry>
        </mxCell>
        <mxCell id="JiStPXWFKOz-2N4WFH8a-111" value="" style="endArrow=none;html=1;rounded=0;entryX=0.5;entryY=1;entryDx=0;entryDy=0;exitX=0.5;exitY=0;exitDx=0;exitDy=0;" parent="1" source="JiStPXWFKOz-2N4WFH8a-73" target="JiStPXWFKOz-2N4WFH8a-17" edge="1">
          <mxGeometry width="50" height="50" relative="1" as="geometry">
            <mxPoint x="90" y="930" as="sourcePoint" />
            <mxPoint x="140" y="880" as="targetPoint" />
          </mxGeometry>
        </mxCell>
        <mxCell id="JiStPXWFKOz-2N4WFH8a-112" value="" style="endArrow=none;html=1;rounded=0;entryX=0.5;entryY=1;entryDx=0;entryDy=0;exitX=0.5;exitY=0;exitDx=0;exitDy=0;" parent="1" source="JiStPXWFKOz-2N4WFH8a-23" target="JiStPXWFKOz-2N4WFH8a-17" edge="1">
          <mxGeometry width="50" height="50" relative="1" as="geometry">
            <mxPoint x="90" y="930" as="sourcePoint" />
            <mxPoint x="140" y="880" as="targetPoint" />
          </mxGeometry>
        </mxCell>
        <mxCell id="JiStPXWFKOz-2N4WFH8a-113" value="" style="endArrow=none;html=1;rounded=0;entryX=0.5;entryY=1;entryDx=0;entryDy=0;exitX=0.5;exitY=0;exitDx=0;exitDy=0;" parent="1" source="JiStPXWFKOz-2N4WFH8a-75" target="JiStPXWFKOz-2N4WFH8a-17" edge="1">
          <mxGeometry width="50" height="50" relative="1" as="geometry">
            <mxPoint x="300" y="950" as="sourcePoint" />
            <mxPoint x="350" y="900" as="targetPoint" />
          </mxGeometry>
        </mxCell>
        <mxCell id="JiStPXWFKOz-2N4WFH8a-114" value="" style="endArrow=none;html=1;rounded=0;entryX=0.5;entryY=1;entryDx=0;entryDy=0;exitX=0.5;exitY=0;exitDx=0;exitDy=0;" parent="1" source="JiStPXWFKOz-2N4WFH8a-76" target="JiStPXWFKOz-2N4WFH8a-17" edge="1">
          <mxGeometry width="50" height="50" relative="1" as="geometry">
            <mxPoint x="300" y="950" as="sourcePoint" />
            <mxPoint x="350" y="900" as="targetPoint" />
          </mxGeometry>
        </mxCell>
        <mxCell id="JiStPXWFKOz-2N4WFH8a-115" value="" style="endArrow=none;html=1;rounded=0;entryX=0.5;entryY=1;entryDx=0;entryDy=0;exitX=0.5;exitY=0;exitDx=0;exitDy=0;" parent="1" source="JiStPXWFKOz-2N4WFH8a-24" target="PEZ2Lzkom9RQwcPd4v05-1" edge="1">
          <mxGeometry width="50" height="50" relative="1" as="geometry">
            <mxPoint x="670" y="950" as="sourcePoint" />
            <mxPoint x="650" y="872.5" as="targetPoint" />
          </mxGeometry>
        </mxCell>
        <mxCell id="JiStPXWFKOz-2N4WFH8a-116" value="" style="endArrow=none;html=1;rounded=0;entryX=0.5;entryY=1;entryDx=0;entryDy=0;exitX=0.5;exitY=0;exitDx=0;exitDy=0;" parent="1" source="JiStPXWFKOz-2N4WFH8a-56" target="PEZ2Lzkom9RQwcPd4v05-1" edge="1">
          <mxGeometry width="50" height="50" relative="1" as="geometry">
            <mxPoint x="670" y="950" as="sourcePoint" />
            <mxPoint x="650" y="872.5" as="targetPoint" />
          </mxGeometry>
        </mxCell>
        <mxCell id="JiStPXWFKOz-2N4WFH8a-117" value="" style="endArrow=none;html=1;rounded=0;exitX=0.5;exitY=1;exitDx=0;exitDy=0;entryX=0.5;entryY=0;entryDx=0;entryDy=0;" parent="1" source="PEZ2Lzkom9RQwcPd4v05-1" target="JiStPXWFKOz-2N4WFH8a-57" edge="1">
          <mxGeometry width="50" height="50" relative="1" as="geometry">
            <mxPoint x="650" y="872.5" as="sourcePoint" />
            <mxPoint x="780" y="880" as="targetPoint" />
          </mxGeometry>
        </mxCell>
        <mxCell id="JiStPXWFKOz-2N4WFH8a-118" value="" style="endArrow=none;html=1;rounded=0;entryX=0.5;entryY=1;entryDx=0;entryDy=0;exitX=0.5;exitY=0;exitDx=0;exitDy=0;" parent="1" source="JiStPXWFKOz-2N4WFH8a-58" target="PEZ2Lzkom9RQwcPd4v05-1" edge="1">
          <mxGeometry width="50" height="50" relative="1" as="geometry">
            <mxPoint x="950" y="940" as="sourcePoint" />
            <mxPoint x="650" y="872.5" as="targetPoint" />
          </mxGeometry>
        </mxCell>
        <mxCell id="JiStPXWFKOz-2N4WFH8a-125" value="N" style="text;html=1;whiteSpace=wrap;strokeColor=none;fillColor=none;align=center;verticalAlign=middle;rounded=0;fontSize=16;" parent="1" vertex="1">
          <mxGeometry x="800" y="322.87" width="40" height="20" as="geometry" />
        </mxCell>
        <mxCell id="JiStPXWFKOz-2N4WFH8a-127" value="1" style="text;html=1;whiteSpace=wrap;strokeColor=none;fillColor=none;align=center;verticalAlign=middle;rounded=0;fontSize=16;" parent="1" vertex="1">
          <mxGeometry x="240" y="430" width="40" height="20" as="geometry" />
        </mxCell>
        <mxCell id="JiStPXWFKOz-2N4WFH8a-128" value="N" style="text;html=1;whiteSpace=wrap;strokeColor=none;fillColor=none;align=center;verticalAlign=middle;rounded=0;fontSize=16;" parent="1" vertex="1">
          <mxGeometry x="240" y="257.87" width="40" height="20" as="geometry" />
        </mxCell>
        <mxCell id="JiStPXWFKOz-2N4WFH8a-130" value="N" style="text;html=1;whiteSpace=wrap;strokeColor=none;fillColor=none;align=center;verticalAlign=middle;rounded=0;fontSize=16;" parent="1" vertex="1">
          <mxGeometry x="240" y="697.61" width="40" height="20" as="geometry" />
        </mxCell>
        <mxCell id="JiStPXWFKOz-2N4WFH8a-131" value="1" style="text;html=1;whiteSpace=wrap;strokeColor=none;fillColor=none;align=center;verticalAlign=middle;rounded=0;fontSize=16;" parent="1" vertex="1">
          <mxGeometry x="665" y="727.17" width="40" height="20" as="geometry" />
        </mxCell>
        <mxCell id="JiStPXWFKOz-2N4WFH8a-132" value="N" style="text;html=1;whiteSpace=wrap;strokeColor=none;fillColor=none;align=center;verticalAlign=middle;rounded=0;fontSize=16;" parent="1" vertex="1">
          <mxGeometry x="360" y="725.17" width="40" height="20" as="geometry" />
        </mxCell>
        <mxCell id="JiStPXWFKOz-2N4WFH8a-133" value="무인발권기 기능 사용 여부" style="ellipse;whiteSpace=wrap;html=1;" parent="1" vertex="1">
          <mxGeometry x="-80" y="460.5" width="120" height="49.12" as="geometry" />
        </mxCell>
        <mxCell id="JiStPXWFKOz-2N4WFH8a-134" value="" style="endArrow=none;html=1;rounded=0;exitX=1;exitY=0.5;exitDx=0;exitDy=0;" parent="1" source="JiStPXWFKOz-2N4WFH8a-133" edge="1">
          <mxGeometry width="50" height="50" relative="1" as="geometry">
            <mxPoint x="80" y="542.5" as="sourcePoint" />
            <mxPoint x="210" y="490" as="targetPoint" />
          </mxGeometry>
        </mxCell>
        <mxCell id="JiStPXWFKOz-2N4WFH8a-135" value="선호 영화관 ID" style="ellipse;whiteSpace=wrap;html=1;" parent="1" vertex="1">
          <mxGeometry x="-80" y="509.62" width="120" height="32.5" as="geometry" />
        </mxCell>
        <mxCell id="JiStPXWFKOz-2N4WFH8a-136" value="" style="endArrow=none;html=1;rounded=0;exitX=1;exitY=0.5;exitDx=0;exitDy=0;entryX=0;entryY=0.5;entryDx=0;entryDy=0;" parent="1" source="JiStPXWFKOz-2N4WFH8a-135" edge="1">
          <mxGeometry width="50" height="50" relative="1" as="geometry">
            <mxPoint x="80" y="575.5" as="sourcePoint" />
            <mxPoint x="210" y="490" as="targetPoint" />
          </mxGeometry>
        </mxCell>
        <mxCell id="JiStPXWFKOz-2N4WFH8a-137" value="알림톡/PUSH 동의 여부" style="ellipse;whiteSpace=wrap;html=1;" parent="1" vertex="1">
          <mxGeometry x="-80" y="542.62" width="120" height="32.5" as="geometry" />
        </mxCell>
        <mxCell id="JiStPXWFKOz-2N4WFH8a-138" value="" style="endArrow=none;html=1;rounded=0;exitX=1;exitY=0.5;exitDx=0;exitDy=0;entryX=0;entryY=0.5;entryDx=0;entryDy=0;" parent="1" source="JiStPXWFKOz-2N4WFH8a-137" edge="1">
          <mxGeometry width="50" height="50" relative="1" as="geometry">
            <mxPoint x="80" y="610.5" as="sourcePoint" />
            <mxPoint x="210" y="490" as="targetPoint" />
          </mxGeometry>
        </mxCell>
        <mxCell id="JiStPXWFKOz-2N4WFH8a-139" value="SMS 동의 여부" style="ellipse;whiteSpace=wrap;html=1;" parent="1" vertex="1">
          <mxGeometry x="-80" y="575.87" width="120" height="32.5" as="geometry" />
        </mxCell>
        <mxCell id="JiStPXWFKOz-2N4WFH8a-140" value="" style="endArrow=none;html=1;rounded=0;exitX=1;exitY=0.5;exitDx=0;exitDy=0;entryX=0;entryY=0.5;entryDx=0;entryDy=0;" parent="1" source="JiStPXWFKOz-2N4WFH8a-139" edge="1">
          <mxGeometry width="50" height="50" relative="1" as="geometry">
            <mxPoint x="85" y="644.75" as="sourcePoint" />
            <mxPoint x="210" y="490" as="targetPoint" />
          </mxGeometry>
        </mxCell>
        <mxCell id="JiStPXWFKOz-2N4WFH8a-141" value="이메일 동의 여부" style="ellipse;whiteSpace=wrap;html=1;" parent="1" vertex="1">
          <mxGeometry x="-80" y="608.87" width="120" height="32.5" as="geometry" />
        </mxCell>
        <mxCell id="JiStPXWFKOz-2N4WFH8a-142" value="" style="endArrow=none;html=1;rounded=0;exitX=1;exitY=0.5;exitDx=0;exitDy=0;entryX=0;entryY=0.5;entryDx=0;entryDy=0;" parent="1" source="JiStPXWFKOz-2N4WFH8a-141" edge="1">
          <mxGeometry width="50" height="50" relative="1" as="geometry">
            <mxPoint x="85" y="676.75" as="sourcePoint" />
            <mxPoint x="210" y="490" as="targetPoint" />
          </mxGeometry>
        </mxCell>
        <mxCell id="JiStPXWFKOz-2N4WFH8a-154" value="" style="edgeStyle=orthogonalEdgeStyle;rounded=0;orthogonalLoop=1;jettySize=auto;html=1;entryX=0;entryY=0.5;entryDx=0;entryDy=0;endArrow=none;endFill=0;" parent="1" source="JiStPXWFKOz-2N4WFH8a-144" edge="1">
          <mxGeometry relative="1" as="geometry">
            <mxPoint x="775" y="560" as="targetPoint" />
          </mxGeometry>
        </mxCell>
        <mxCell id="JiStPXWFKOz-2N4WFH8a-144" value="선호 영화관" style="rhombus;whiteSpace=wrap;html=1;" parent="1" vertex="1">
          <mxGeometry x="570" y="520" width="80" height="80" as="geometry" />
        </mxCell>
        <mxCell id="JiStPXWFKOz-2N4WFH8a-149" value="" style="endArrow=none;html=1;rounded=0;entryX=0;entryY=0.5;entryDx=0;entryDy=0;" parent="1" target="JiStPXWFKOz-2N4WFH8a-144" edge="1">
          <mxGeometry width="50" height="50" relative="1" as="geometry">
            <mxPoint x="480" y="560" as="sourcePoint" />
            <mxPoint x="550" y="460" as="targetPoint" />
          </mxGeometry>
        </mxCell>
        <mxCell id="JiStPXWFKOz-2N4WFH8a-150" value="" style="endArrow=none;html=1;rounded=0;" parent="1" edge="1">
          <mxGeometry width="50" height="50" relative="1" as="geometry">
            <mxPoint x="480" y="560" as="sourcePoint" />
            <mxPoint x="480" y="479" as="targetPoint" />
          </mxGeometry>
        </mxCell>
        <mxCell id="JiStPXWFKOz-2N4WFH8a-152" value="" style="endArrow=none;html=1;rounded=0;entryX=0.5;entryY=1;entryDx=0;entryDy=0;exitX=0.5;exitY=0;exitDx=0;exitDy=0;" parent="1" source="PEZ2Lzkom9RQwcPd4v05-12" target="JiStPXWFKOz-2N4WFH8a-42" edge="1">
          <mxGeometry width="50" height="50" relative="1" as="geometry">
            <mxPoint x="835" y="245" as="sourcePoint" />
            <mxPoint x="870" y="140" as="targetPoint" />
          </mxGeometry>
        </mxCell>
        <mxCell id="JiStPXWFKOz-2N4WFH8a-155" value="1" style="text;html=1;whiteSpace=wrap;strokeColor=none;fillColor=none;align=center;verticalAlign=middle;rounded=0;fontSize=16;" parent="1" vertex="1">
          <mxGeometry x="725" y="561.75" width="40" height="20" as="geometry" />
        </mxCell>
        <mxCell id="JiStPXWFKOz-2N4WFH8a-156" value="&lt;u&gt;영화관 고유 식별자&lt;/u&gt;" style="ellipse;whiteSpace=wrap;html=1;" parent="1" vertex="1">
          <mxGeometry x="1010" y="489.62" width="120" height="32.5" as="geometry" />
        </mxCell>
        <mxCell id="JiStPXWFKOz-2N4WFH8a-157" value="" style="endArrow=none;html=1;rounded=0;exitX=1;exitY=0.5;exitDx=0;exitDy=0;entryX=0;entryY=0.5;entryDx=0;entryDy=0;" parent="1" target="JiStPXWFKOz-2N4WFH8a-156" edge="1">
          <mxGeometry width="50" height="50" relative="1" as="geometry">
            <mxPoint x="905" y="560" as="sourcePoint" />
            <mxPoint x="1010" y="482" as="targetPoint" />
          </mxGeometry>
        </mxCell>
        <mxCell id="JiStPXWFKOz-2N4WFH8a-158" value="영화관 이름" style="ellipse;whiteSpace=wrap;html=1;" parent="1" vertex="1">
          <mxGeometry x="1010" y="522.73" width="120" height="32.5" as="geometry" />
        </mxCell>
        <mxCell id="JiStPXWFKOz-2N4WFH8a-159" value="" style="endArrow=none;html=1;rounded=0;exitX=1;exitY=0.5;exitDx=0;exitDy=0;entryX=0;entryY=0.5;entryDx=0;entryDy=0;" parent="1" target="JiStPXWFKOz-2N4WFH8a-158" edge="1">
          <mxGeometry width="50" height="50" relative="1" as="geometry">
            <mxPoint x="905" y="560" as="sourcePoint" />
            <mxPoint x="1010" y="512.11" as="targetPoint" />
          </mxGeometry>
        </mxCell>
        <mxCell id="JiStPXWFKOz-2N4WFH8a-161" value="영화관 지역 분류" style="ellipse;whiteSpace=wrap;html=1;" parent="1" vertex="1">
          <mxGeometry x="1010" y="555.2299999999999" width="120" height="32.5" as="geometry" />
        </mxCell>
        <mxCell id="JiStPXWFKOz-2N4WFH8a-162" value="" style="endArrow=none;html=1;rounded=0;exitX=1;exitY=0.5;exitDx=0;exitDy=0;entryX=0;entryY=0.5;entryDx=0;entryDy=0;" parent="1" target="JiStPXWFKOz-2N4WFH8a-161" edge="1">
          <mxGeometry width="50" height="50" relative="1" as="geometry">
            <mxPoint x="905" y="560" as="sourcePoint" />
            <mxPoint x="1013" y="546.05" as="targetPoint" />
          </mxGeometry>
        </mxCell>
        <mxCell id="JiStPXWFKOz-2N4WFH8a-165" value="N" style="text;html=1;whiteSpace=wrap;strokeColor=none;fillColor=none;align=center;verticalAlign=middle;rounded=0;fontSize=16;" parent="1" vertex="1">
          <mxGeometry x="345" y="495.87" width="40" height="20" as="geometry" />
        </mxCell>
        <mxCell id="JiStPXWFKOz-2N4WFH8a-167" value="마케팅 활용 개인정보 전체 동의 여부" style="ellipse;whiteSpace=wrap;html=1;fontSize=12;" parent="1" vertex="1">
          <mxGeometry x="-80" y="414.12" width="120" height="46.38" as="geometry" />
        </mxCell>
        <mxCell id="JiStPXWFKOz-2N4WFH8a-168" value="" style="endArrow=none;html=1;rounded=0;exitX=1;exitY=0.5;exitDx=0;exitDy=0;" parent="1" source="JiStPXWFKOz-2N4WFH8a-167" edge="1">
          <mxGeometry width="50" height="50" relative="1" as="geometry">
            <mxPoint x="50" y="502" as="sourcePoint" />
            <mxPoint x="210" y="490" as="targetPoint" />
          </mxGeometry>
        </mxCell>
        <mxCell id="JiStPXWFKOz-2N4WFH8a-169" value="영화관 상세 주소" style="ellipse;whiteSpace=wrap;html=1;" parent="1" vertex="1">
          <mxGeometry x="1010" y="588.87" width="120" height="32.5" as="geometry" />
        </mxCell>
        <mxCell id="JiStPXWFKOz-2N4WFH8a-170" value="" style="endArrow=none;html=1;rounded=0;exitX=1;exitY=0.5;exitDx=0;exitDy=0;entryX=0;entryY=0.5;entryDx=0;entryDy=0;" parent="1" target="JiStPXWFKOz-2N4WFH8a-169" edge="1">
          <mxGeometry width="50" height="50" relative="1" as="geometry">
            <mxPoint x="905" y="560" as="sourcePoint" />
            <mxPoint x="1085" y="540" as="targetPoint" />
          </mxGeometry>
        </mxCell>
        <mxCell id="JiStPXWFKOz-2N4WFH8a-171" value="인증 성공 여부" style="ellipse;whiteSpace=wrap;html=1;" parent="1" vertex="1">
          <mxGeometry x="1066" y="957" width="120" height="32.5" as="geometry" />
        </mxCell>
        <mxCell id="JiStPXWFKOz-2N4WFH8a-172" value="" style="endArrow=none;html=1;rounded=0;exitX=0.5;exitY=0;exitDx=0;exitDy=0;entryX=0.5;entryY=1;entryDx=0;entryDy=0;" parent="1" source="JiStPXWFKOz-2N4WFH8a-171" target="PEZ2Lzkom9RQwcPd4v05-1" edge="1">
          <mxGeometry width="50" height="50" relative="1" as="geometry">
            <mxPoint x="1075" y="939.5" as="sourcePoint" />
            <mxPoint x="660" y="880" as="targetPoint" />
          </mxGeometry>
        </mxCell>
        <mxCell id="PEZ2Lzkom9RQwcPd4v05-1" value="&lt;span style=&quot;font-size: 12px;&quot;&gt;MEMBER_AUTH&lt;/span&gt;&lt;div&gt;(인증번호 관리)&lt;/div&gt;" style="rounded=0;whiteSpace=wrap;html=1;fontSize=14;" vertex="1" parent="1">
          <mxGeometry x="545" y="820" width="210" height="57.5" as="geometry" />
        </mxCell>
        <mxCell id="PEZ2Lzkom9RQwcPd4v05-3" value="MEMBER&amp;nbsp;&lt;div&gt;(회원 기본 정보)&lt;/div&gt;" style="rounded=0;whiteSpace=wrap;html=1;fontSize=14;" vertex="1" parent="1">
          <mxGeometry x="210" y="460.5" width="130" height="57.5" as="geometry" />
        </mxCell>
        <mxCell id="PEZ2Lzkom9RQwcPd4v05-4" value="1" style="text;html=1;whiteSpace=wrap;strokeColor=none;fillColor=none;align=center;verticalAlign=middle;rounded=0;fontSize=16;" vertex="1" parent="1">
          <mxGeometry x="240" y="526.62" width="40" height="20" as="geometry" />
        </mxCell>
        <mxCell id="PEZ2Lzkom9RQwcPd4v05-7" value="MEMBER_TERMS_AGREE&amp;nbsp;&lt;div&gt;(약관 동의 이력)&lt;/div&gt;" style="rounded=0;whiteSpace=wrap;html=1;fontSize=14;" vertex="1" parent="1">
          <mxGeometry x="175" y="720.11" width="210" height="57.5" as="geometry" />
        </mxCell>
        <mxCell id="PEZ2Lzkom9RQwcPd4v05-10" value="SNS_MEMBER&amp;nbsp;&lt;div&gt;(SNS 로그인 계정 매핑)&lt;/div&gt;" style="rounded=0;whiteSpace=wrap;html=1;fontSize=14;" vertex="1" parent="1">
          <mxGeometry x="175" y="194.12" width="210" height="57.5" as="geometry" />
        </mxCell>
        <mxCell id="PEZ2Lzkom9RQwcPd4v05-12" value="MEMBER_LOGIN_HISTORY&amp;nbsp;&lt;div&gt;(로그인 기록 저장)&lt;/div&gt;" style="rounded=0;whiteSpace=wrap;html=1;fontSize=14;" vertex="1" parent="1">
          <mxGeometry x="735" y="257.87" width="210" height="57.5" as="geometry" />
        </mxCell>
        <mxCell id="PEZ2Lzkom9RQwcPd4v05-14" value="CINEMA&amp;nbsp;&lt;div&gt;(영화관 마스터)&lt;/div&gt;" style="rounded=0;whiteSpace=wrap;html=1;fontSize=14;" vertex="1" parent="1">
          <mxGeometry x="775" y="530.12" width="130" height="57.5" as="geometry" />
        </mxCell>
        <mxCell id="PEZ2Lzkom9RQwcPd4v05-15" value="TERMS&amp;nbsp;&lt;div&gt;(약관 마스터)&lt;/div&gt;" style="rounded=0;whiteSpace=wrap;html=1;fontSize=14;" vertex="1" parent="1">
          <mxGeometry x="705" y="720.92" width="130" height="57.5" as="geometry" />
        </mxCell>
        <mxCell id="PEZ2Lzkom9RQwcPd4v05-18" value="1" style="text;html=1;whiteSpace=wrap;strokeColor=none;fillColor=none;align=center;verticalAlign=middle;rounded=0;fontSize=16;" vertex="1" parent="1">
          <mxGeometry x="345" y="460.5" width="40" height="20" as="geometry" />
        </mxCell>
      </root>
    </mxGraphModel>
  </diagram>
</mxfile>
